<mxfile host="app.diagrams.net" agent="Mozilla/5.0 (Windows NT 10.0; Win64; x64) AppleWebKit/537.36 (KHTML, like Gecko) Chrome/135.0.0.0 Safari/537.36 Edg/135.0.0.0" version="26.2.13">
  <diagram name="Page-1" id="hC5KfFPhoTWDi0yMPn16">
    <mxGraphModel dx="275" dy="658" grid="1" gridSize="10" guides="1" tooltips="1" connect="1" arrows="1" fold="1" page="1" pageScale="1" pageWidth="850" pageHeight="1100" math="0" shadow="0">
      <root>
        <mxCell id="0" />
        <mxCell id="1" parent="0" />
        <mxCell id="hotJ6gQ6gH4wyyDCzWZE-2" value="FelixBus Website" style="swimlane;whiteSpace=wrap;html=1;" vertex="1" parent="1">
          <mxGeometry x="110" y="170" width="220" height="270" as="geometry" />
        </mxCell>
        <mxCell id="hotJ6gQ6gH4wyyDCzWZE-3" value="Aceder ao site" style="ellipse;whiteSpace=wrap;html=1;" vertex="1" parent="hotJ6gQ6gH4wyyDCzWZE-2">
          <mxGeometry x="140" y="215" width="70" height="40" as="geometry" />
        </mxCell>
        <mxCell id="hotJ6gQ6gH4wyyDCzWZE-4" value="Consultar rotas" style="ellipse;whiteSpace=wrap;html=1;" vertex="1" parent="hotJ6gQ6gH4wyyDCzWZE-2">
          <mxGeometry x="130" y="30" width="70" height="40" as="geometry" />
        </mxCell>
        <mxCell id="hotJ6gQ6gH4wyyDCzWZE-5" value="Consultar horarios" style="ellipse;whiteSpace=wrap;html=1;" vertex="1" parent="hotJ6gQ6gH4wyyDCzWZE-2">
          <mxGeometry x="130" y="80" width="70" height="40" as="geometry" />
        </mxCell>
        <mxCell id="hotJ6gQ6gH4wyyDCzWZE-6" value="Consultar precos" style="ellipse;whiteSpace=wrap;html=1;" vertex="1" parent="hotJ6gQ6gH4wyyDCzWZE-2">
          <mxGeometry x="130" y="130" width="70" height="40" as="geometry" />
        </mxCell>
        <mxCell id="hotJ6gQ6gH4wyyDCzWZE-7" value="visualizar alertas/&lt;div&gt;informacoes/&lt;/div&gt;&lt;div&gt;promocoes&lt;/div&gt;" style="ellipse;whiteSpace=wrap;html=1;" vertex="1" parent="hotJ6gQ6gH4wyyDCzWZE-2">
          <mxGeometry x="10" y="200" width="105" height="70" as="geometry" />
        </mxCell>
        <mxCell id="hotJ6gQ6gH4wyyDCzWZE-8" value="consultar informacoes de viagem" style="ellipse;whiteSpace=wrap;html=1;" vertex="1" parent="hotJ6gQ6gH4wyyDCzWZE-2">
          <mxGeometry x="10" y="70" width="80" height="60" as="geometry" />
        </mxCell>
        <mxCell id="hotJ6gQ6gH4wyyDCzWZE-14" value="" style="endArrow=classic;html=1;rounded=0;entryX=0;entryY=0.5;entryDx=0;entryDy=0;" edge="1" parent="hotJ6gQ6gH4wyyDCzWZE-2" target="hotJ6gQ6gH4wyyDCzWZE-7">
          <mxGeometry width="50" height="50" relative="1" as="geometry">
            <mxPoint x="-40" y="150" as="sourcePoint" />
            <mxPoint x="42.5" y="150" as="targetPoint" />
          </mxGeometry>
        </mxCell>
        <mxCell id="hotJ6gQ6gH4wyyDCzWZE-15" value="" style="endArrow=classic;html=1;rounded=0;entryX=1;entryY=0;entryDx=0;entryDy=0;exitX=0;exitY=0.5;exitDx=0;exitDy=0;" edge="1" parent="hotJ6gQ6gH4wyyDCzWZE-2" source="hotJ6gQ6gH4wyyDCzWZE-4" target="hotJ6gQ6gH4wyyDCzWZE-8">
          <mxGeometry width="50" height="50" relative="1" as="geometry">
            <mxPoint x="160" y="140" as="sourcePoint" />
            <mxPoint x="180" y="60" as="targetPoint" />
          </mxGeometry>
        </mxCell>
        <mxCell id="hotJ6gQ6gH4wyyDCzWZE-26" value="&lt;font style=&quot;font-size: 8px;&quot;&gt;&amp;lt;&amp;lt;extend&amp;gt;&amp;gt;&lt;/font&gt;" style="edgeLabel;html=1;align=center;verticalAlign=middle;resizable=0;points=[];" vertex="1" connectable="0" parent="hotJ6gQ6gH4wyyDCzWZE-15">
          <mxGeometry x="-0.2584" relative="1" as="geometry">
            <mxPoint as="offset" />
          </mxGeometry>
        </mxCell>
        <mxCell id="hotJ6gQ6gH4wyyDCzWZE-16" value="" style="endArrow=classic;html=1;rounded=0;entryX=1;entryY=0.5;entryDx=0;entryDy=0;exitX=0;exitY=0.5;exitDx=0;exitDy=0;" edge="1" parent="hotJ6gQ6gH4wyyDCzWZE-2" source="hotJ6gQ6gH4wyyDCzWZE-5" target="hotJ6gQ6gH4wyyDCzWZE-8">
          <mxGeometry width="50" height="50" relative="1" as="geometry">
            <mxPoint x="180" y="70" as="sourcePoint" />
            <mxPoint x="121" y="99" as="targetPoint" />
          </mxGeometry>
        </mxCell>
        <mxCell id="hotJ6gQ6gH4wyyDCzWZE-25" value="&lt;font style=&quot;font-size: 8px;&quot;&gt;&amp;lt;&amp;lt;extend&amp;gt;&amp;gt;&lt;/font&gt;" style="edgeLabel;html=1;align=center;verticalAlign=middle;resizable=0;points=[];" vertex="1" connectable="0" parent="hotJ6gQ6gH4wyyDCzWZE-16">
          <mxGeometry x="-0.2165" y="1" relative="1" as="geometry">
            <mxPoint x="1" y="-11" as="offset" />
          </mxGeometry>
        </mxCell>
        <mxCell id="hotJ6gQ6gH4wyyDCzWZE-17" value="" style="endArrow=classic;html=1;rounded=0;entryX=1;entryY=1;entryDx=0;entryDy=0;exitX=0;exitY=0.5;exitDx=0;exitDy=0;" edge="1" parent="hotJ6gQ6gH4wyyDCzWZE-2" source="hotJ6gQ6gH4wyyDCzWZE-6" target="hotJ6gQ6gH4wyyDCzWZE-8">
          <mxGeometry width="50" height="50" relative="1" as="geometry">
            <mxPoint x="157" y="150" as="sourcePoint" />
            <mxPoint x="110" y="150" as="targetPoint" />
          </mxGeometry>
        </mxCell>
        <mxCell id="hotJ6gQ6gH4wyyDCzWZE-24" value="&lt;font style=&quot;font-size: 8px;&quot;&gt;&amp;lt;&amp;lt;extend&amp;gt;&amp;gt;&lt;/font&gt;" style="edgeLabel;html=1;align=center;verticalAlign=middle;resizable=0;points=[];" vertex="1" connectable="0" parent="hotJ6gQ6gH4wyyDCzWZE-17">
          <mxGeometry x="-0.2365" y="-1" relative="1" as="geometry">
            <mxPoint as="offset" />
          </mxGeometry>
        </mxCell>
        <mxCell id="hotJ6gQ6gH4wyyDCzWZE-18" value="" style="endArrow=classic;html=1;rounded=0;dashed=1;exitX=0;exitY=0.5;exitDx=0;exitDy=0;entryX=1;entryY=0.5;entryDx=0;entryDy=0;" edge="1" parent="hotJ6gQ6gH4wyyDCzWZE-2" source="hotJ6gQ6gH4wyyDCzWZE-3" target="hotJ6gQ6gH4wyyDCzWZE-7">
          <mxGeometry width="50" height="50" relative="1" as="geometry">
            <mxPoint x="135" y="300" as="sourcePoint" />
            <mxPoint x="185" y="250" as="targetPoint" />
          </mxGeometry>
        </mxCell>
        <mxCell id="hotJ6gQ6gH4wyyDCzWZE-22" value="&lt;font style=&quot;font-size: 8px;&quot;&gt;&amp;lt;&amp;lt;include&amp;gt;&amp;gt;&lt;/font&gt;" style="edgeLabel;html=1;align=center;verticalAlign=middle;resizable=0;points=[];" vertex="1" connectable="0" parent="hotJ6gQ6gH4wyyDCzWZE-18">
          <mxGeometry x="-0.2177" y="-3" relative="1" as="geometry">
            <mxPoint y="23" as="offset" />
          </mxGeometry>
        </mxCell>
        <mxCell id="hotJ6gQ6gH4wyyDCzWZE-19" value="" style="endArrow=classic;html=1;rounded=0;dashed=1;entryX=0.5;entryY=1;entryDx=0;entryDy=0;exitX=0;exitY=0;exitDx=0;exitDy=0;" edge="1" parent="hotJ6gQ6gH4wyyDCzWZE-2" source="hotJ6gQ6gH4wyyDCzWZE-3" target="hotJ6gQ6gH4wyyDCzWZE-8">
          <mxGeometry width="50" height="50" relative="1" as="geometry">
            <mxPoint x="170" y="220" as="sourcePoint" />
            <mxPoint x="135" y="200" as="targetPoint" />
          </mxGeometry>
        </mxCell>
        <mxCell id="hotJ6gQ6gH4wyyDCzWZE-20" value="&lt;font style=&quot;font-size: 8px;&quot;&gt;&amp;lt;&amp;lt;include&amp;gt;&amp;gt;&lt;/font&gt;" style="edgeLabel;html=1;align=center;verticalAlign=middle;resizable=0;points=[];" vertex="1" connectable="0" parent="hotJ6gQ6gH4wyyDCzWZE-19">
          <mxGeometry x="-0.185" y="-1" relative="1" as="geometry">
            <mxPoint as="offset" />
          </mxGeometry>
        </mxCell>
        <mxCell id="hotJ6gQ6gH4wyyDCzWZE-1" value="Visitante" style="shape=umlActor;verticalLabelPosition=bottom;verticalAlign=top;html=1;outlineConnect=0;strokeWidth=3;" vertex="1" parent="1">
          <mxGeometry x="40" y="290" width="30" height="60" as="geometry" />
        </mxCell>
        <mxCell id="hotJ6gQ6gH4wyyDCzWZE-13" value="" style="endArrow=classic;html=1;rounded=0;entryX=0;entryY=0.5;entryDx=0;entryDy=0;" edge="1" parent="1" target="hotJ6gQ6gH4wyyDCzWZE-8">
          <mxGeometry width="50" height="50" relative="1" as="geometry">
            <mxPoint x="70" y="320" as="sourcePoint" />
            <mxPoint x="148" y="230" as="targetPoint" />
          </mxGeometry>
        </mxCell>
      </root>
    </mxGraphModel>
  </diagram>
</mxfile>
